<mxfile host="app.diagrams.net" modified="2022-06-08T04:11:33.931Z" agent="5.0 (Macintosh; Intel Mac OS X 10_15_7) AppleWebKit/605.1.15 (KHTML, like Gecko) Version/15.3 Safari/605.1.15" version="19.0.2" etag="Bah8D0SWulmu_EEldxq9" type="github">
  <diagram id="C5RBs43oDa-KdzZeNtuy" name="Page-1">
    <mxGraphModel dx="949" dy="530" grid="1" gridSize="10" guides="1" tooltips="1" connect="1" arrows="1" fold="1" page="1" pageScale="1" pageWidth="4681" pageHeight="3300" background="#ffffff" math="0" shadow="0">
      <root>
        <mxCell id="WIyWlLk6GJQsqaUBKTNV-0" />
        <mxCell id="WIyWlLk6GJQsqaUBKTNV-1" parent="WIyWlLk6GJQsqaUBKTNV-0" />
        <mxCell id="WIyWlLk6GJQsqaUBKTNV-2" value="" style="rounded=0;html=1;jettySize=auto;orthogonalLoop=1;fontSize=11;endArrow=block;endFill=0;endSize=8;strokeWidth=1;shadow=0;labelBackgroundColor=none;edgeStyle=orthogonalEdgeStyle;fontColor=#000000;" parent="WIyWlLk6GJQsqaUBKTNV-1" source="WIyWlLk6GJQsqaUBKTNV-3" target="WIyWlLk6GJQsqaUBKTNV-6" edge="1">
          <mxGeometry relative="1" as="geometry" />
        </mxCell>
        <mxCell id="WIyWlLk6GJQsqaUBKTNV-3" value="Lamp doesn&#39;t work" style="rounded=0;whiteSpace=wrap;html=1;fontSize=12;glass=0;strokeWidth=1;shadow=0;fontColor=#000000;" parent="WIyWlLk6GJQsqaUBKTNV-1" vertex="1">
          <mxGeometry x="210" y="3640" width="120" height="40" as="geometry" />
        </mxCell>
        <mxCell id="WIyWlLk6GJQsqaUBKTNV-4" value="Yes" style="rounded=0;html=1;jettySize=auto;orthogonalLoop=1;fontSize=11;endArrow=block;endFill=0;endSize=8;strokeWidth=1;shadow=0;labelBackgroundColor=none;edgeStyle=orthogonalEdgeStyle;fontColor=#000000;" parent="WIyWlLk6GJQsqaUBKTNV-1" source="WIyWlLk6GJQsqaUBKTNV-6" target="WIyWlLk6GJQsqaUBKTNV-10" edge="1">
          <mxGeometry y="20" relative="1" as="geometry">
            <mxPoint as="offset" />
          </mxGeometry>
        </mxCell>
        <mxCell id="WIyWlLk6GJQsqaUBKTNV-5" value="No" style="edgeStyle=orthogonalEdgeStyle;rounded=0;html=1;jettySize=auto;orthogonalLoop=1;fontSize=11;endArrow=block;endFill=0;endSize=8;strokeWidth=1;shadow=0;labelBackgroundColor=none;fontColor=#000000;" parent="WIyWlLk6GJQsqaUBKTNV-1" source="WIyWlLk6GJQsqaUBKTNV-6" target="WIyWlLk6GJQsqaUBKTNV-7" edge="1">
          <mxGeometry y="10" relative="1" as="geometry">
            <mxPoint as="offset" />
          </mxGeometry>
        </mxCell>
        <mxCell id="WIyWlLk6GJQsqaUBKTNV-6" value="Lamp&lt;br&gt;plugged in?" style="rhombus;whiteSpace=wrap;html=1;shadow=0;fontFamily=Helvetica;fontSize=12;align=center;strokeWidth=1;spacing=6;spacingTop=-4;rounded=0;fontColor=#000000;" parent="WIyWlLk6GJQsqaUBKTNV-1" vertex="1">
          <mxGeometry x="220" y="3730" width="100" height="80" as="geometry" />
        </mxCell>
        <mxCell id="WIyWlLk6GJQsqaUBKTNV-7" value="Plug in lamp" style="rounded=0;whiteSpace=wrap;html=1;fontSize=12;glass=0;strokeWidth=1;shadow=0;fontColor=#000000;" parent="WIyWlLk6GJQsqaUBKTNV-1" vertex="1">
          <mxGeometry x="380" y="3750" width="110" height="40" as="geometry" />
        </mxCell>
        <mxCell id="WIyWlLk6GJQsqaUBKTNV-8" value="No" style="rounded=0;html=1;jettySize=auto;orthogonalLoop=1;fontSize=11;endArrow=block;endFill=0;endSize=8;strokeWidth=1;shadow=0;labelBackgroundColor=none;edgeStyle=orthogonalEdgeStyle;fontColor=#000000;" parent="WIyWlLk6GJQsqaUBKTNV-1" source="WIyWlLk6GJQsqaUBKTNV-10" target="WIyWlLk6GJQsqaUBKTNV-11" edge="1">
          <mxGeometry x="0.3333" y="20" relative="1" as="geometry">
            <mxPoint as="offset" />
          </mxGeometry>
        </mxCell>
        <mxCell id="WIyWlLk6GJQsqaUBKTNV-9" value="Yes" style="edgeStyle=orthogonalEdgeStyle;rounded=0;html=1;jettySize=auto;orthogonalLoop=1;fontSize=11;endArrow=block;endFill=0;endSize=8;strokeWidth=1;shadow=0;labelBackgroundColor=none;fontColor=#000000;" parent="WIyWlLk6GJQsqaUBKTNV-1" source="WIyWlLk6GJQsqaUBKTNV-10" target="WIyWlLk6GJQsqaUBKTNV-12" edge="1">
          <mxGeometry y="10" relative="1" as="geometry">
            <mxPoint as="offset" />
          </mxGeometry>
        </mxCell>
        <mxCell id="WIyWlLk6GJQsqaUBKTNV-10" value="Bulb&lt;br&gt;burned out?" style="rhombus;whiteSpace=wrap;html=1;shadow=0;fontFamily=Helvetica;fontSize=12;align=center;strokeWidth=1;spacing=6;spacingTop=-4;rounded=0;fontColor=#000000;" parent="WIyWlLk6GJQsqaUBKTNV-1" vertex="1">
          <mxGeometry x="220" y="3850" width="100" height="80" as="geometry" />
        </mxCell>
        <mxCell id="WIyWlLk6GJQsqaUBKTNV-11" value="Repair Lamp" style="rounded=0;whiteSpace=wrap;html=1;fontSize=12;glass=0;strokeWidth=1;shadow=0;fontColor=#000000;" parent="WIyWlLk6GJQsqaUBKTNV-1" vertex="1">
          <mxGeometry x="210" y="3990" width="120" height="40" as="geometry" />
        </mxCell>
        <mxCell id="WIyWlLk6GJQsqaUBKTNV-12" value="Replace Bulb" style="rounded=0;whiteSpace=wrap;html=1;fontSize=12;glass=0;strokeWidth=1;shadow=0;fontColor=#000000;" parent="WIyWlLk6GJQsqaUBKTNV-1" vertex="1">
          <mxGeometry x="380" y="3870" width="110" height="40" as="geometry" />
        </mxCell>
        <mxCell id="ij-zDNfqEZCnku6-jbej-2" value="&lt;font style=&quot;font-size: 24px&quot;&gt;新建活动&lt;/font&gt;" style="rounded=0;whiteSpace=wrap;html=1;fillColor=#FFD966;strokeColor=#d6b656;fontColor=#000000;" parent="WIyWlLk6GJQsqaUBKTNV-1" vertex="1">
          <mxGeometry x="430" y="380" width="120" height="60" as="geometry" />
        </mxCell>
        <mxCell id="ij-zDNfqEZCnku6-jbej-4" value="&lt;font style=&quot;font-size: 24px&quot;&gt;发布活动&lt;/font&gt;" style="rounded=0;whiteSpace=wrap;html=1;fillColor=#FFD966;strokeColor=#d6b656;fontColor=#000000;" parent="WIyWlLk6GJQsqaUBKTNV-1" vertex="1">
          <mxGeometry x="1204" y="390" width="120" height="60" as="geometry" />
        </mxCell>
        <mxCell id="ij-zDNfqEZCnku6-jbej-6" value="&lt;font style=&quot;font-size: 24px&quot;&gt;报名审核&lt;/font&gt;" style="rounded=0;whiteSpace=wrap;html=1;fillColor=#FFD966;strokeColor=#d6b656;fontColor=#000000;" parent="WIyWlLk6GJQsqaUBKTNV-1" vertex="1">
          <mxGeometry x="2790" y="390.5" width="120" height="60" as="geometry" />
        </mxCell>
        <mxCell id="ij-zDNfqEZCnku6-jbej-14" value="Thread 1" style="swimlane;whiteSpace=wrap;fontColor=#000000;" parent="WIyWlLk6GJQsqaUBKTNV-1" vertex="1">
          <mxGeometry x="120" y="4050" width="280" height="570" as="geometry" />
        </mxCell>
        <mxCell id="ij-zDNfqEZCnku6-jbej-15" value="" style="ellipse;shape=startState;fillColor=#000000;strokeColor=#ff0000;fontColor=#000000;" parent="ij-zDNfqEZCnku6-jbej-14" vertex="1">
          <mxGeometry x="100" y="40" width="30" height="30" as="geometry" />
        </mxCell>
        <mxCell id="ij-zDNfqEZCnku6-jbej-16" value="" style="edgeStyle=elbowEdgeStyle;elbow=horizontal;verticalAlign=bottom;endArrow=open;endSize=8;strokeColor=#FF0000;endFill=1;rounded=0;fontColor=#000000;" parent="ij-zDNfqEZCnku6-jbej-14" source="ij-zDNfqEZCnku6-jbej-15" target="ij-zDNfqEZCnku6-jbej-17" edge="1">
          <mxGeometry x="100" y="40" as="geometry">
            <mxPoint x="115" y="110" as="targetPoint" />
          </mxGeometry>
        </mxCell>
        <mxCell id="ij-zDNfqEZCnku6-jbej-17" value="idle" style="fontColor=#000000;" parent="ij-zDNfqEZCnku6-jbej-14" vertex="1">
          <mxGeometry x="60" y="110" width="110" height="50" as="geometry" />
        </mxCell>
        <mxCell id="ij-zDNfqEZCnku6-jbej-18" value="user action" style="fontColor=#000000;" parent="ij-zDNfqEZCnku6-jbej-14" vertex="1">
          <mxGeometry x="60" y="220" width="110" height="50" as="geometry" />
        </mxCell>
        <mxCell id="ij-zDNfqEZCnku6-jbej-19" value="" style="endArrow=open;strokeColor=#FF0000;endFill=1;rounded=0;fontColor=#000000;" parent="ij-zDNfqEZCnku6-jbej-14" source="ij-zDNfqEZCnku6-jbej-17" target="ij-zDNfqEZCnku6-jbej-18" edge="1">
          <mxGeometry relative="1" as="geometry" />
        </mxCell>
        <mxCell id="ij-zDNfqEZCnku6-jbej-20" value="post command" style="fontColor=#000000;" parent="ij-zDNfqEZCnku6-jbej-14" vertex="1">
          <mxGeometry x="60" y="325" width="110" height="50" as="geometry" />
        </mxCell>
        <mxCell id="ij-zDNfqEZCnku6-jbej-21" value="" style="endArrow=open;strokeColor=#FF0000;endFill=1;rounded=0;fontColor=#000000;" parent="ij-zDNfqEZCnku6-jbej-14" source="ij-zDNfqEZCnku6-jbej-18" target="ij-zDNfqEZCnku6-jbej-20" edge="1">
          <mxGeometry relative="1" as="geometry" />
        </mxCell>
        <mxCell id="ij-zDNfqEZCnku6-jbej-22" value="" style="edgeStyle=elbowEdgeStyle;elbow=horizontal;strokeColor=#FF0000;endArrow=open;endFill=1;rounded=0;fontColor=#000000;" parent="ij-zDNfqEZCnku6-jbej-14" source="ij-zDNfqEZCnku6-jbej-20" target="ij-zDNfqEZCnku6-jbej-17" edge="1">
          <mxGeometry width="100" height="100" relative="1" as="geometry">
            <mxPoint x="160" y="290" as="sourcePoint" />
            <mxPoint x="260" y="190" as="targetPoint" />
            <Array as="points">
              <mxPoint x="30" y="250" />
            </Array>
          </mxGeometry>
        </mxCell>
        <mxCell id="ij-zDNfqEZCnku6-jbej-23" value="Thread 2" style="swimlane;whiteSpace=wrap;fontColor=#000000;" parent="WIyWlLk6GJQsqaUBKTNV-1" vertex="1">
          <mxGeometry x="400" y="4050" width="280" height="570" as="geometry" />
        </mxCell>
        <mxCell id="ij-zDNfqEZCnku6-jbej-24" value="" style="ellipse;shape=startState;fillColor=#000000;strokeColor=#ff0000;fontColor=#000000;" parent="ij-zDNfqEZCnku6-jbej-23" vertex="1">
          <mxGeometry x="60" y="40" width="30" height="30" as="geometry" />
        </mxCell>
        <mxCell id="ij-zDNfqEZCnku6-jbej-25" value="" style="edgeStyle=elbowEdgeStyle;elbow=horizontal;verticalAlign=bottom;endArrow=open;endSize=8;strokeColor=#FF0000;endFill=1;rounded=0;fontColor=#000000;" parent="ij-zDNfqEZCnku6-jbej-23" source="ij-zDNfqEZCnku6-jbej-24" target="ij-zDNfqEZCnku6-jbej-26" edge="1">
          <mxGeometry x="40" y="20" as="geometry">
            <mxPoint x="55" y="90" as="targetPoint" />
          </mxGeometry>
        </mxCell>
        <mxCell id="ij-zDNfqEZCnku6-jbej-26" value="idle" style="fontColor=#000000;" parent="ij-zDNfqEZCnku6-jbej-23" vertex="1">
          <mxGeometry x="20" y="110" width="110" height="50" as="geometry" />
        </mxCell>
        <mxCell id="ij-zDNfqEZCnku6-jbej-27" value="check for &#xa;new commands" style="fontColor=#000000;" parent="ij-zDNfqEZCnku6-jbej-23" vertex="1">
          <mxGeometry x="20" y="220" width="110" height="50" as="geometry" />
        </mxCell>
        <mxCell id="ij-zDNfqEZCnku6-jbej-28" value="" style="endArrow=open;strokeColor=#FF0000;endFill=1;rounded=0;fontColor=#000000;" parent="ij-zDNfqEZCnku6-jbej-23" source="ij-zDNfqEZCnku6-jbej-26" target="ij-zDNfqEZCnku6-jbej-27" edge="1">
          <mxGeometry relative="1" as="geometry" />
        </mxCell>
        <mxCell id="ij-zDNfqEZCnku6-jbej-29" value="command queue" style="fontColor=#000000;" parent="ij-zDNfqEZCnku6-jbej-23" vertex="1">
          <mxGeometry x="20" y="325" width="110" height="50" as="geometry" />
        </mxCell>
        <mxCell id="ij-zDNfqEZCnku6-jbej-30" value="" style="endArrow=open;strokeColor=#FF0000;endFill=1;rounded=0;fontColor=#000000;" parent="ij-zDNfqEZCnku6-jbej-23" source="ij-zDNfqEZCnku6-jbej-27" target="ij-zDNfqEZCnku6-jbej-29" edge="1">
          <mxGeometry relative="1" as="geometry" />
        </mxCell>
        <mxCell id="ij-zDNfqEZCnku6-jbej-31" value="queue empty" style="rhombus;fillColor=#ffffc0;strokeColor=#ff0000;fontColor=#000000;" parent="ij-zDNfqEZCnku6-jbej-23" vertex="1">
          <mxGeometry x="150" y="225" width="80" height="40" as="geometry" />
        </mxCell>
        <mxCell id="ij-zDNfqEZCnku6-jbej-32" value="yes" style="edgeStyle=elbowEdgeStyle;elbow=horizontal;align=left;verticalAlign=bottom;endArrow=open;endSize=8;strokeColor=#FF0000;exitX=0.5;exitY=0;endFill=1;rounded=0;entryX=0.75;entryY=0.5;entryPerimeter=0;fontColor=#000000;" parent="ij-zDNfqEZCnku6-jbej-23" source="ij-zDNfqEZCnku6-jbej-31" target="ij-zDNfqEZCnku6-jbej-35" edge="1">
          <mxGeometry x="-1" relative="1" as="geometry">
            <mxPoint x="160" y="150" as="targetPoint" />
            <Array as="points">
              <mxPoint x="190" y="180" />
            </Array>
          </mxGeometry>
        </mxCell>
        <mxCell id="ij-zDNfqEZCnku6-jbej-33" value="no" style="edgeStyle=elbowEdgeStyle;elbow=horizontal;align=left;verticalAlign=top;endArrow=open;endSize=8;strokeColor=#FF0000;endFill=1;rounded=0;fontColor=#000000;" parent="ij-zDNfqEZCnku6-jbej-23" source="ij-zDNfqEZCnku6-jbej-31" target="ij-zDNfqEZCnku6-jbej-37" edge="1">
          <mxGeometry x="-1" relative="1" as="geometry">
            <mxPoint x="190" y="305" as="targetPoint" />
          </mxGeometry>
        </mxCell>
        <mxCell id="ij-zDNfqEZCnku6-jbej-34" value="" style="endArrow=open;strokeColor=#FF0000;endFill=1;rounded=0;fontColor=#000000;" parent="ij-zDNfqEZCnku6-jbej-23" source="ij-zDNfqEZCnku6-jbej-27" target="ij-zDNfqEZCnku6-jbej-31" edge="1">
          <mxGeometry relative="1" as="geometry" />
        </mxCell>
        <mxCell id="ij-zDNfqEZCnku6-jbej-35" value="" style="shape=line;strokeWidth=6;strokeColor=#ff0000;rotation=90;fontColor=#000000;" parent="ij-zDNfqEZCnku6-jbej-23" vertex="1">
          <mxGeometry x="130" y="127.5" width="50" height="15" as="geometry" />
        </mxCell>
        <mxCell id="ij-zDNfqEZCnku6-jbej-36" value="" style="edgeStyle=elbowEdgeStyle;elbow=horizontal;verticalAlign=bottom;endArrow=open;endSize=8;strokeColor=#FF0000;endFill=1;rounded=0;fontColor=#000000;" parent="ij-zDNfqEZCnku6-jbej-23" source="ij-zDNfqEZCnku6-jbej-35" target="ij-zDNfqEZCnku6-jbej-26" edge="1">
          <mxGeometry x="130" y="90" as="geometry">
            <mxPoint x="230" y="140" as="targetPoint" />
          </mxGeometry>
        </mxCell>
        <mxCell id="ij-zDNfqEZCnku6-jbej-37" value="dispatch&#xa;command&#xa;worker thread" style="fontColor=#000000;" parent="ij-zDNfqEZCnku6-jbej-23" vertex="1">
          <mxGeometry x="140" y="325" width="110" height="50" as="geometry" />
        </mxCell>
        <mxCell id="ij-zDNfqEZCnku6-jbej-38" value="critical&#xa;section" style="shape=note;whiteSpace=wrap;size=17;fontColor=#000000;" parent="ij-zDNfqEZCnku6-jbej-23" vertex="1">
          <mxGeometry x="105" y="490" width="100" height="50" as="geometry" />
        </mxCell>
        <mxCell id="ij-zDNfqEZCnku6-jbej-39" value="" style="endArrow=none;strokeColor=#FF0000;endFill=0;rounded=0;dashed=1;fontColor=#000000;" parent="ij-zDNfqEZCnku6-jbej-23" source="ij-zDNfqEZCnku6-jbej-29" target="ij-zDNfqEZCnku6-jbej-38" edge="1">
          <mxGeometry relative="1" as="geometry" />
        </mxCell>
        <mxCell id="ij-zDNfqEZCnku6-jbej-40" value="" style="whiteSpace=wrap;strokeColor=#FF0000;fillColor=#FF0000;fontColor=#000000;" parent="ij-zDNfqEZCnku6-jbej-23" vertex="1">
          <mxGeometry x="245" y="395" width="5" height="45" as="geometry" />
        </mxCell>
        <mxCell id="ij-zDNfqEZCnku6-jbej-41" value="" style="edgeStyle=elbowEdgeStyle;elbow=horizontal;entryX=0;entryY=0.5;strokeColor=#FF0000;endArrow=open;endFill=1;rounded=0;fontColor=#000000;" parent="ij-zDNfqEZCnku6-jbej-23" source="ij-zDNfqEZCnku6-jbej-37" target="ij-zDNfqEZCnku6-jbej-40" edge="1">
          <mxGeometry width="100" height="100" relative="1" as="geometry">
            <mxPoint x="60" y="480" as="sourcePoint" />
            <mxPoint x="160" y="380" as="targetPoint" />
            <Array as="points">
              <mxPoint x="195" y="400" />
            </Array>
          </mxGeometry>
        </mxCell>
        <mxCell id="ij-zDNfqEZCnku6-jbej-42" value="Thread 3" style="swimlane;whiteSpace=wrap;fontColor=#000000;" parent="WIyWlLk6GJQsqaUBKTNV-1" vertex="1">
          <mxGeometry x="680" y="4050" width="280" height="570" as="geometry" />
        </mxCell>
        <mxCell id="ij-zDNfqEZCnku6-jbej-43" value="process&#xa;command" style="fontColor=#000000;" parent="ij-zDNfqEZCnku6-jbej-42" vertex="1">
          <mxGeometry x="90" y="405" width="110" height="50" as="geometry" />
        </mxCell>
        <mxCell id="ij-zDNfqEZCnku6-jbej-44" value="" style="edgeStyle=elbowEdgeStyle;elbow=horizontal;strokeColor=#FF0000;endArrow=open;endFill=1;rounded=0;entryX=0.25;entryY=0.5;entryPerimeter=0;fontColor=#000000;" parent="ij-zDNfqEZCnku6-jbej-42" target="ij-zDNfqEZCnku6-jbej-35" edge="1">
          <mxGeometry width="100" height="100" relative="1" as="geometry">
            <mxPoint x="-30" y="410" as="sourcePoint" />
            <mxPoint x="-120" y="120" as="targetPoint" />
            <Array as="points">
              <mxPoint x="-10" y="135" />
            </Array>
          </mxGeometry>
        </mxCell>
        <mxCell id="ij-zDNfqEZCnku6-jbej-45" value="" style="edgeStyle=none;strokeColor=#FF0000;endArrow=open;endFill=1;rounded=0;fontColor=#000000;" parent="ij-zDNfqEZCnku6-jbej-42" target="ij-zDNfqEZCnku6-jbej-43" edge="1">
          <mxGeometry width="100" height="100" relative="1" as="geometry">
            <mxPoint x="-30" y="429.5" as="sourcePoint" />
            <mxPoint x="90" y="429.5" as="targetPoint" />
          </mxGeometry>
        </mxCell>
        <mxCell id="ij-zDNfqEZCnku6-jbej-46" value="" style="ellipse;shape=endState;fillColor=#000000;strokeColor=#ff0000;fontColor=#000000;" parent="ij-zDNfqEZCnku6-jbej-42" vertex="1">
          <mxGeometry x="130" y="500" width="30" height="30" as="geometry" />
        </mxCell>
        <mxCell id="ij-zDNfqEZCnku6-jbej-47" value="" style="endArrow=open;strokeColor=#FF0000;endFill=1;rounded=0;fontColor=#000000;" parent="ij-zDNfqEZCnku6-jbej-42" source="ij-zDNfqEZCnku6-jbej-43" target="ij-zDNfqEZCnku6-jbej-46" edge="1">
          <mxGeometry relative="1" as="geometry" />
        </mxCell>
        <mxCell id="ij-zDNfqEZCnku6-jbej-48" value="" style="endArrow=open;strokeColor=#FF0000;endFill=1;rounded=0;fontColor=#000000;" parent="WIyWlLk6GJQsqaUBKTNV-1" source="ij-zDNfqEZCnku6-jbej-20" target="ij-zDNfqEZCnku6-jbej-29" edge="1">
          <mxGeometry relative="1" as="geometry" />
        </mxCell>
        <mxCell id="ij-zDNfqEZCnku6-jbej-52" value="活动设置" style="rounded=1;whiteSpace=wrap;html=1;fontSize=18;fillColor=#fff2cc;strokeColor=#d6b656;fontColor=#000000;" parent="WIyWlLk6GJQsqaUBKTNV-1" vertex="1">
          <mxGeometry x="218" y="340" width="130" height="30" as="geometry" />
        </mxCell>
        <mxCell id="ij-zDNfqEZCnku6-jbej-53" value="活动所需成员信息" style="rounded=1;whiteSpace=wrap;html=1;fontSize=18;fillColor=#fff2cc;strokeColor=#d6b656;fontColor=#000000;" parent="WIyWlLk6GJQsqaUBKTNV-1" vertex="1">
          <mxGeometry x="180" y="440" width="180" height="30" as="geometry" />
        </mxCell>
        <mxCell id="ij-zDNfqEZCnku6-jbej-57" value="" style="strokeWidth=2;html=1;shape=mxgraph.flowchart.annotation_2;align=left;labelPosition=right;pointerEvents=1;fontSize=18;fillColor=#FFD966;direction=west;fontColor=#000000;" parent="WIyWlLk6GJQsqaUBKTNV-1" vertex="1">
          <mxGeometry x="370" y="360" width="50" height="100" as="geometry" />
        </mxCell>
        <mxCell id="ij-zDNfqEZCnku6-jbej-59" value="" style="strokeWidth=3;html=1;shape=mxgraph.flowchart.annotation_2;align=left;labelPosition=right;pointerEvents=1;fontSize=12;fillColor=#FFD966;direction=south;sketch=0;fontColor=#000000;" parent="WIyWlLk6GJQsqaUBKTNV-1" vertex="1">
          <mxGeometry x="230" y="470" width="130" height="50" as="geometry" />
        </mxCell>
        <mxCell id="ij-zDNfqEZCnku6-jbej-60" value="&lt;font style=&quot;font-size: 18px&quot;&gt;默认&lt;/font&gt;" style="rounded=1;whiteSpace=wrap;html=1;fontSize=12;fillColor=#fff2cc;strokeColor=#d6b656;fontColor=#000000;" parent="WIyWlLk6GJQsqaUBKTNV-1" vertex="1">
          <mxGeometry x="180" y="520" width="100" height="30" as="geometry" />
        </mxCell>
        <mxCell id="ij-zDNfqEZCnku6-jbej-61" value="默认必填项" style="swimlane;fontStyle=0;childLayout=stackLayout;horizontal=1;startSize=26;fillColor=none;horizontalStack=0;resizeParent=1;resizeParentMax=0;resizeLast=0;collapsible=1;marginBottom=0;fontSize=18;fontColor=#000000;" parent="WIyWlLk6GJQsqaUBKTNV-1" vertex="1">
          <mxGeometry x="100" y="560" width="140" height="104" as="geometry">
            <mxRectangle x="100" y="560" width="60" height="30" as="alternateBounds" />
          </mxGeometry>
        </mxCell>
        <mxCell id="ij-zDNfqEZCnku6-jbej-62" value="姓名&#xa;&#xa;" style="text;strokeColor=none;fillColor=none;align=left;verticalAlign=top;spacingLeft=4;spacingRight=4;overflow=hidden;rotatable=0;points=[[0,0.5],[1,0.5]];portConstraint=eastwest;fontSize=18;fontColor=#000000;" parent="ij-zDNfqEZCnku6-jbej-61" vertex="1">
          <mxGeometry y="26" width="140" height="26" as="geometry" />
        </mxCell>
        <mxCell id="ij-zDNfqEZCnku6-jbej-63" value="英文名" style="text;strokeColor=none;fillColor=none;align=left;verticalAlign=top;spacingLeft=4;spacingRight=4;overflow=hidden;rotatable=0;points=[[0,0.5],[1,0.5]];portConstraint=eastwest;fontSize=18;fontColor=#000000;" parent="ij-zDNfqEZCnku6-jbej-61" vertex="1">
          <mxGeometry y="52" width="140" height="26" as="geometry" />
        </mxCell>
        <mxCell id="ij-zDNfqEZCnku6-jbej-64" value="手提电话" style="text;strokeColor=none;fillColor=none;align=left;verticalAlign=top;spacingLeft=4;spacingRight=4;overflow=hidden;rotatable=0;points=[[0,0.5],[1,0.5]];portConstraint=eastwest;fontSize=18;fontColor=#000000;" parent="ij-zDNfqEZCnku6-jbej-61" vertex="1">
          <mxGeometry y="78" width="140" height="26" as="geometry" />
        </mxCell>
        <mxCell id="ij-zDNfqEZCnku6-jbej-65" value="&lt;font size=&quot;4&quot;&gt;管理员设置&lt;/font&gt;" style="rounded=1;whiteSpace=wrap;html=1;fontSize=12;fillColor=#fff2cc;strokeColor=#d6b656;fontColor=#000000;" parent="WIyWlLk6GJQsqaUBKTNV-1" vertex="1">
          <mxGeometry x="290" y="520" width="140" height="30" as="geometry" />
        </mxCell>
        <mxCell id="ij-zDNfqEZCnku6-jbej-67" value="管理员设置" style="swimlane;fontStyle=0;childLayout=stackLayout;horizontal=1;startSize=26;fillColor=none;horizontalStack=0;resizeParent=1;resizeParentMax=0;resizeLast=0;collapsible=1;marginBottom=0;fontSize=18;fontColor=#000000;" parent="WIyWlLk6GJQsqaUBKTNV-1" vertex="1">
          <mxGeometry x="290" y="560" width="140" height="182" as="geometry">
            <mxRectangle x="100" y="560" width="60" height="30" as="alternateBounds" />
          </mxGeometry>
        </mxCell>
        <mxCell id="ij-zDNfqEZCnku6-jbej-68" value="出生日期" style="text;strokeColor=none;fillColor=none;align=left;verticalAlign=top;spacingLeft=4;spacingRight=4;overflow=hidden;rotatable=0;points=[[0,0.5],[1,0.5]];portConstraint=eastwest;fontSize=18;fontColor=#000000;" parent="ij-zDNfqEZCnku6-jbej-67" vertex="1">
          <mxGeometry y="26" width="140" height="26" as="geometry" />
        </mxCell>
        <mxCell id="ij-zDNfqEZCnku6-jbej-69" value="地址" style="text;strokeColor=none;fillColor=none;align=left;verticalAlign=top;spacingLeft=4;spacingRight=4;overflow=hidden;rotatable=0;points=[[0,0.5],[1,0.5]];portConstraint=eastwest;fontSize=18;fontColor=#000000;" parent="ij-zDNfqEZCnku6-jbej-67" vertex="1">
          <mxGeometry y="52" width="140" height="26" as="geometry" />
        </mxCell>
        <mxCell id="ij-zDNfqEZCnku6-jbej-89" value="性别" style="text;strokeColor=none;fillColor=none;align=left;verticalAlign=top;spacingLeft=4;spacingRight=4;overflow=hidden;rotatable=0;points=[[0,0.5],[1,0.5]];portConstraint=eastwest;fontSize=18;fontColor=#000000;" parent="ij-zDNfqEZCnku6-jbej-67" vertex="1">
          <mxGeometry y="78" width="140" height="26" as="geometry" />
        </mxCell>
        <mxCell id="ij-zDNfqEZCnku6-jbej-90" value="住宅电话" style="text;strokeColor=none;fillColor=none;align=left;verticalAlign=top;spacingLeft=4;spacingRight=4;overflow=hidden;rotatable=0;points=[[0,0.5],[1,0.5]];portConstraint=eastwest;fontSize=18;fontColor=#000000;" parent="ij-zDNfqEZCnku6-jbej-67" vertex="1">
          <mxGeometry y="104" width="140" height="26" as="geometry" />
        </mxCell>
        <mxCell id="ij-zDNfqEZCnku6-jbej-95" value="身份证号码" style="text;strokeColor=none;fillColor=none;align=left;verticalAlign=top;spacingLeft=4;spacingRight=4;overflow=hidden;rotatable=0;points=[[0,0.5],[1,0.5]];portConstraint=eastwest;fontSize=18;fontColor=#000000;" parent="ij-zDNfqEZCnku6-jbej-67" vertex="1">
          <mxGeometry y="130" width="140" height="26" as="geometry" />
        </mxCell>
        <mxCell id="ij-zDNfqEZCnku6-jbej-96" value="……" style="text;strokeColor=none;fillColor=none;align=left;verticalAlign=top;spacingLeft=4;spacingRight=4;overflow=hidden;rotatable=0;points=[[0,0.5],[1,0.5]];portConstraint=eastwest;fontSize=18;fontColor=#000000;" parent="ij-zDNfqEZCnku6-jbej-67" vertex="1">
          <mxGeometry y="156" width="140" height="26" as="geometry" />
        </mxCell>
        <mxCell id="ij-zDNfqEZCnku6-jbej-81" value="" style="shape=partialRectangle;whiteSpace=wrap;html=1;top=0;left=0;fillColor=none;sketch=0;fontSize=18;strokeWidth=3;direction=north;fontColor=#000000;" parent="WIyWlLk6GJQsqaUBKTNV-1" vertex="1">
          <mxGeometry x="360" y="495" width="150" height="25" as="geometry" />
        </mxCell>
        <mxCell id="ij-zDNfqEZCnku6-jbej-82" value="&lt;font size=&quot;4&quot;&gt;限制条件&lt;/font&gt;" style="rounded=1;whiteSpace=wrap;html=1;fontSize=12;fillColor=#fff2cc;strokeColor=#d6b656;fontColor=#000000;" parent="WIyWlLk6GJQsqaUBKTNV-1" vertex="1">
          <mxGeometry x="446" y="520" width="140" height="30" as="geometry" />
        </mxCell>
        <mxCell id="ij-zDNfqEZCnku6-jbej-83" value="限制条件" style="swimlane;fontStyle=0;childLayout=stackLayout;horizontal=1;startSize=26;fillColor=none;horizontalStack=0;resizeParent=1;resizeParentMax=0;resizeLast=0;collapsible=1;marginBottom=0;fontSize=18;fontColor=#000000;" parent="WIyWlLk6GJQsqaUBKTNV-1" vertex="1">
          <mxGeometry x="460" y="560" width="330" height="158" as="geometry">
            <mxRectangle x="100" y="560" width="60" height="30" as="alternateBounds" />
          </mxGeometry>
        </mxCell>
        <mxCell id="ij-zDNfqEZCnku6-jbej-84" value="年龄限制（如限制，出生日期为必填项）" style="text;strokeColor=none;fillColor=none;align=left;verticalAlign=top;spacingLeft=4;spacingRight=4;overflow=hidden;rotatable=0;points=[[0,0.5],[1,0.5]];portConstraint=eastwest;fontSize=18;fontColor=#000000;" parent="ij-zDNfqEZCnku6-jbej-83" vertex="1">
          <mxGeometry y="26" width="330" height="26" as="geometry" />
        </mxCell>
        <mxCell id="ij-zDNfqEZCnku6-jbej-85" value="地址（如限制，详细大众小区为必填项）" style="text;strokeColor=none;fillColor=none;align=left;verticalAlign=top;spacingLeft=4;spacingRight=4;overflow=hidden;rotatable=0;points=[[0,0.5],[1,0.5]];portConstraint=eastwest;fontSize=18;fontColor=#000000;" parent="ij-zDNfqEZCnku6-jbej-83" vertex="1">
          <mxGeometry y="52" width="330" height="28" as="geometry" />
        </mxCell>
        <mxCell id="ij-zDNfqEZCnku6-jbej-88" value="是否会员（如限制，      ）&#xa;&#xa;" style="text;strokeColor=none;fillColor=none;align=left;verticalAlign=top;spacingLeft=4;spacingRight=4;overflow=hidden;rotatable=0;points=[[0,0.5],[1,0.5]];portConstraint=eastwest;fontSize=18;fontColor=#000000;" parent="ij-zDNfqEZCnku6-jbej-83" vertex="1">
          <mxGeometry y="80" width="330" height="30" as="geometry" />
        </mxCell>
        <mxCell id="ij-zDNfqEZCnku6-jbej-91" value="是否允许同一地址会员仅报名一次" style="text;strokeColor=none;fillColor=none;align=left;verticalAlign=top;spacingLeft=4;spacingRight=4;overflow=hidden;rotatable=0;points=[[0,0.5],[1,0.5]];portConstraint=eastwest;fontSize=18;fontColor=#000000;" parent="ij-zDNfqEZCnku6-jbej-83" vertex="1">
          <mxGeometry y="110" width="330" height="48" as="geometry" />
        </mxCell>
        <mxCell id="ij-zDNfqEZCnku6-jbej-92" value="&lt;ol style=&quot;font-size: 12px&quot;&gt;&lt;li&gt;姓名&lt;/li&gt;&lt;li&gt;英文名&lt;/li&gt;&lt;li&gt;手提电话（*）&lt;/li&gt;&lt;li&gt;性别&lt;/li&gt;&lt;li&gt;住宅电话&lt;/li&gt;&lt;li&gt;……&lt;/li&gt;&lt;/ol&gt;" style="strokeWidth=2;html=1;shape=mxgraph.flowchart.multi-document;whiteSpace=wrap;fontSize=18;fillColor=#fff2cc;strokeColor=#d6b656;align=left;fontColor=#000000;" parent="WIyWlLk6GJQsqaUBKTNV-1" vertex="1">
          <mxGeometry x="30" y="700" width="170" height="260" as="geometry" />
        </mxCell>
        <mxCell id="ij-zDNfqEZCnku6-jbej-93" value="&lt;font style=&quot;font-size: 24px&quot;&gt;报名方式&lt;/font&gt;" style="rounded=0;whiteSpace=wrap;html=1;fillColor=#007FFF;strokeColor=#006EAF;fontColor=#000000;" parent="WIyWlLk6GJQsqaUBKTNV-1" vertex="1">
          <mxGeometry x="1200" y="920" width="130" height="60" as="geometry" />
        </mxCell>
        <mxCell id="ij-zDNfqEZCnku6-jbej-94" value="&lt;font size=&quot;5&quot;&gt;活动报名&lt;/font&gt;" style="rounded=0;whiteSpace=wrap;html=1;fillColor=#007FFF;strokeColor=#006EAF;fontColor=#000000;" parent="WIyWlLk6GJQsqaUBKTNV-1" vertex="1">
          <mxGeometry x="2070" y="920" width="120" height="60" as="geometry" />
        </mxCell>
        <mxCell id="ij-zDNfqEZCnku6-jbej-97" value="" style="shape=flexArrow;endArrow=classic;startArrow=classic;html=1;fontSize=24;strokeColor=default;entryX=0.5;entryY=1;entryDx=0;entryDy=0;exitX=0.5;exitY=0;exitDx=0;exitDy=0;fontColor=#000000;" parent="WIyWlLk6GJQsqaUBKTNV-1" source="ij-zDNfqEZCnku6-jbej-93" target="ij-zDNfqEZCnku6-jbej-4" edge="1">
          <mxGeometry width="100" height="100" relative="1" as="geometry">
            <mxPoint x="1270" y="760" as="sourcePoint" />
            <mxPoint x="1270" y="460" as="targetPoint" />
          </mxGeometry>
        </mxCell>
        <mxCell id="ij-zDNfqEZCnku6-jbej-98" value="" style="shape=flexArrow;endArrow=classic;html=1;fontSize=24;strokeColor=default;exitX=0.5;exitY=0;exitDx=0;exitDy=0;fontColor=#000000;" parent="WIyWlLk6GJQsqaUBKTNV-1" source="ij-zDNfqEZCnku6-jbej-94" edge="1">
          <mxGeometry width="50" height="50" relative="1" as="geometry">
            <mxPoint x="2120" y="910" as="sourcePoint" />
            <mxPoint x="2130" y="480" as="targetPoint" />
          </mxGeometry>
        </mxCell>
        <mxCell id="ij-zDNfqEZCnku6-jbej-99" value="提交成功" style="ellipse;whiteSpace=wrap;html=1;sketch=0;fontSize=24;strokeWidth=3;fillColor=#dae8fc;strokeColor=#6c8ebf;fontColor=#000000;" parent="WIyWlLk6GJQsqaUBKTNV-1" vertex="1">
          <mxGeometry x="2015" y="390" width="230" height="80" as="geometry" />
        </mxCell>
        <mxCell id="ij-zDNfqEZCnku6-jbej-100" value="审核通过" style="ellipse;whiteSpace=wrap;html=1;sketch=0;fontSize=24;strokeWidth=3;fillColor=#fff2cc;strokeColor=#d6b656;fontColor=#000000;" parent="WIyWlLk6GJQsqaUBKTNV-1" vertex="1">
          <mxGeometry x="4419" y="330.25" width="230" height="80" as="geometry" />
        </mxCell>
        <mxCell id="ij-zDNfqEZCnku6-jbej-102" value="" style="shape=partialRectangle;whiteSpace=wrap;html=1;top=0;left=0;fillColor=none;sketch=0;fontSize=18;strokeWidth=3;direction=north;fontColor=#000000;" parent="WIyWlLk6GJQsqaUBKTNV-1" vertex="1">
          <mxGeometry x="510" y="495" width="420" height="25" as="geometry" />
        </mxCell>
        <mxCell id="ij-zDNfqEZCnku6-jbej-109" style="edgeStyle=none;orthogonalLoop=1;jettySize=auto;html=1;exitX=0.75;exitY=1;exitDx=0;exitDy=0;fontSize=24;endArrow=halfCircle;endFill=0;strokeColor=default;fontColor=#000000;" parent="WIyWlLk6GJQsqaUBKTNV-1" source="ij-zDNfqEZCnku6-jbej-102" target="ij-zDNfqEZCnku6-jbej-102" edge="1">
          <mxGeometry relative="1" as="geometry" />
        </mxCell>
        <mxCell id="ij-zDNfqEZCnku6-jbej-110" value="&lt;font size=&quot;4&quot;&gt;自定义栏位&lt;/font&gt;" style="rounded=1;whiteSpace=wrap;html=1;fontSize=12;fillColor=#fff2cc;strokeColor=#d6b656;fontColor=#000000;" parent="WIyWlLk6GJQsqaUBKTNV-1" vertex="1">
          <mxGeometry x="820" y="530" width="190" height="30" as="geometry" />
        </mxCell>
        <mxCell id="ij-zDNfqEZCnku6-jbej-111" value="关于对活动参与者的条件限制：&lt;br&gt;1、目前所有的报名成员都是人工审核&lt;br&gt;2、但是对于有些特殊条件，系统会初步进行筛选，不符合条件的不能成功报名，具体情况如下：&lt;br&gt;（1）限制同一地址只能报名一人，当填写“详细地址”重复时（暂不支持地址识别）：提示“此活动已限制同一地址只能报名一人，当前填写地址已有重复，已被限制报名！”&lt;br&gt;（2）有年龄限制时，当填写“出生日期”不符合年龄条件限制，会提示：“该参与人员不符合活动要求！”&lt;br&gt;（3）有地址限制时，当填写“大中小区”不符合条件地址时，会提示：“该参与人员地址（大区/中区/小区）不符合活动要求！”&lt;br&gt;（4）有会员限制时，当“姓名”和“电话号码”不再会员簿时，会提示“该活动仅限会员报名”&lt;br&gt;&lt;br&gt;" style="shape=note;size=20;whiteSpace=wrap;html=1;sketch=0;fontSize=24;strokeWidth=3;fillColor=none;align=left;fontColor=#000000;" parent="WIyWlLk6GJQsqaUBKTNV-1" vertex="1">
          <mxGeometry x="430" y="780" width="412" height="600" as="geometry" />
        </mxCell>
        <mxCell id="ij-zDNfqEZCnku6-jbej-113" value="用户报名：&lt;br&gt;1、电子收据&lt;br&gt;2、实体收据" style="whiteSpace=wrap;html=1;sketch=0;fontSize=24;strokeWidth=3;fillColor=none;fontColor=#000000;" parent="WIyWlLk6GJQsqaUBKTNV-1" vertex="1">
          <mxGeometry x="900" y="2970" width="120" height="60" as="geometry" />
        </mxCell>
        <mxCell id="ij-zDNfqEZCnku6-jbej-114" value="活动有费用的时候才会需要" style="text;html=1;align=center;verticalAlign=middle;resizable=0;points=[];autosize=1;strokeColor=none;fillColor=none;fontSize=24;fontColor=#000000;" parent="WIyWlLk6GJQsqaUBKTNV-1" vertex="1">
          <mxGeometry x="500" y="2790" width="300" height="30" as="geometry" />
        </mxCell>
        <mxCell id="ij-zDNfqEZCnku6-jbej-115" value="管理员在编辑活动时：&lt;br&gt;1、缴费方法&lt;br&gt;2、活动需要收据打开" style="whiteSpace=wrap;html=1;sketch=0;fontSize=24;strokeWidth=3;fillColor=none;fontColor=#000000;" parent="WIyWlLk6GJQsqaUBKTNV-1" vertex="1">
          <mxGeometry x="550" y="2960" width="340" height="230" as="geometry" />
        </mxCell>
        <mxCell id="ij-zDNfqEZCnku6-jbej-116" value="去现场的时候提取收取" style="text;html=1;align=center;verticalAlign=middle;resizable=0;points=[];autosize=1;strokeColor=none;fillColor=none;fontSize=24;fontColor=#000000;" parent="WIyWlLk6GJQsqaUBKTNV-1" vertex="1">
          <mxGeometry x="1080" y="2975" width="260" height="30" as="geometry" />
        </mxCell>
        <mxCell id="ij-zDNfqEZCnku6-jbej-117" value="管理员发布活动" style="rounded=1;whiteSpace=wrap;html=1;sketch=0;fontSize=24;strokeWidth=3;fillColor=none;fontColor=#000000;" parent="WIyWlLk6GJQsqaUBKTNV-1" vertex="1">
          <mxGeometry x="580" y="3280" width="120" height="60" as="geometry" />
        </mxCell>
        <mxCell id="ij-zDNfqEZCnku6-jbej-118" value="用户报名活动" style="rounded=1;whiteSpace=wrap;html=1;sketch=0;fontSize=24;strokeWidth=3;fillColor=none;fontColor=#000000;" parent="WIyWlLk6GJQsqaUBKTNV-1" vertex="1">
          <mxGeometry x="870" y="3280" width="120" height="60" as="geometry" />
        </mxCell>
        <mxCell id="ij-zDNfqEZCnku6-jbej-119" value="用户缴费" style="rounded=1;whiteSpace=wrap;html=1;sketch=0;fontSize=24;strokeWidth=3;fillColor=none;fontColor=#000000;" parent="WIyWlLk6GJQsqaUBKTNV-1" vertex="1">
          <mxGeometry x="870" y="3490" width="120" height="60" as="geometry" />
        </mxCell>
        <mxCell id="ij-zDNfqEZCnku6-jbej-120" value="去现场参加活动" style="rounded=1;whiteSpace=wrap;html=1;sketch=0;fontSize=24;strokeWidth=3;fillColor=none;fontColor=#000000;" parent="WIyWlLk6GJQsqaUBKTNV-1" vertex="1">
          <mxGeometry x="1380" y="3490" width="120" height="60" as="geometry" />
        </mxCell>
        <mxCell id="ij-zDNfqEZCnku6-jbej-121" value="打印收据" style="rounded=1;whiteSpace=wrap;html=1;sketch=0;fontSize=24;strokeWidth=3;fillColor=none;fontColor=#000000;" parent="WIyWlLk6GJQsqaUBKTNV-1" vertex="1">
          <mxGeometry x="1180" y="3280" width="120" height="60" as="geometry" />
        </mxCell>
        <mxCell id="ij-zDNfqEZCnku6-jbej-122" value="签字留底" style="rounded=1;whiteSpace=wrap;html=1;sketch=0;fontSize=24;strokeWidth=3;fillColor=none;fontColor=#000000;" parent="WIyWlLk6GJQsqaUBKTNV-1" vertex="1">
          <mxGeometry x="1630" y="3490" width="120" height="60" as="geometry" />
        </mxCell>
        <mxCell id="ij-zDNfqEZCnku6-jbej-138" value="" style="strokeWidth=3;html=1;shape=mxgraph.flowchart.annotation_2;align=left;labelPosition=right;pointerEvents=1;fontSize=12;fillColor=#FFD966;direction=east;sketch=0;fontColor=#000000;" parent="WIyWlLk6GJQsqaUBKTNV-1" vertex="1">
          <mxGeometry x="1360" y="334.25" width="80" height="151.5" as="geometry" />
        </mxCell>
        <mxCell id="ij-zDNfqEZCnku6-jbej-141" value="" style="line;strokeWidth=4;html=1;perimeter=backbonePerimeter;points=[];outlineConnect=0;sketch=0;fontSize=24;fillColor=none;fontColor=#000000;" parent="WIyWlLk6GJQsqaUBKTNV-1" vertex="1">
          <mxGeometry x="1690" y="295.88" width="40" height="59.75" as="geometry" />
        </mxCell>
        <mxCell id="ij-zDNfqEZCnku6-jbej-145" value="&lt;font size=&quot;4&quot;&gt;网页报名&lt;/font&gt;" style="rounded=1;whiteSpace=wrap;html=1;fontSize=12;fillColor=#fff2cc;strokeColor=#d6b656;fontColor=#000000;" parent="WIyWlLk6GJQsqaUBKTNV-1" vertex="1">
          <mxGeometry x="1450" y="320" width="190" height="30" as="geometry" />
        </mxCell>
        <mxCell id="ij-zDNfqEZCnku6-jbej-146" value="&lt;font size=&quot;4&quot;&gt;小程序报名&lt;/font&gt;" style="rounded=1;whiteSpace=wrap;html=1;fontSize=12;fillColor=#fff2cc;strokeColor=#d6b656;fontColor=#000000;" parent="WIyWlLk6GJQsqaUBKTNV-1" vertex="1">
          <mxGeometry x="1450" y="470" width="190" height="30" as="geometry" />
        </mxCell>
        <mxCell id="ij-zDNfqEZCnku6-jbej-147" value="" style="strokeWidth=3;html=1;shape=mxgraph.flowchart.annotation_2;align=left;labelPosition=right;pointerEvents=1;fontSize=12;fillColor=#FFD966;direction=east;sketch=0;fontColor=#000000;" parent="WIyWlLk6GJQsqaUBKTNV-1" vertex="1">
          <mxGeometry x="1650" y="250" width="80" height="151.5" as="geometry" />
        </mxCell>
        <mxCell id="ij-zDNfqEZCnku6-jbej-149" value="连结" style="text;html=1;align=center;verticalAlign=middle;resizable=0;points=[];autosize=1;strokeColor=none;fillColor=none;fontSize=24;fontColor=#000000;" parent="WIyWlLk6GJQsqaUBKTNV-1" vertex="1">
          <mxGeometry x="1740" y="240.25" width="60" height="30" as="geometry" />
        </mxCell>
        <mxCell id="ij-zDNfqEZCnku6-jbej-150" value="二维码" style="text;html=1;align=center;verticalAlign=middle;resizable=0;points=[];autosize=1;strokeColor=none;fillColor=none;fontSize=24;fontColor=#000000;" parent="WIyWlLk6GJQsqaUBKTNV-1" vertex="1">
          <mxGeometry x="1740" y="310" width="90" height="30" as="geometry" />
        </mxCell>
        <mxCell id="ij-zDNfqEZCnku6-jbej-156" value="快捷报名" style="text;html=1;align=center;verticalAlign=middle;resizable=0;points=[];autosize=1;strokeColor=none;fillColor=none;fontSize=24;fontColor=#000000;" parent="WIyWlLk6GJQsqaUBKTNV-1" vertex="1">
          <mxGeometry x="1740" y="390" width="110" height="30" as="geometry" />
        </mxCell>
        <mxCell id="ij-zDNfqEZCnku6-jbej-158" value="&lt;font style=&quot;font-size: 12px&quot;&gt;管理员通过搜索：姓名、电话、会员编号、身份证号码、详细地址、QR code，在会员簿中搜索会员添加报名&lt;/font&gt;" style="shape=note;size=20;whiteSpace=wrap;html=1;sketch=0;fontSize=24;strokeWidth=3;fillColor=none;fontColor=#000000;" parent="WIyWlLk6GJQsqaUBKTNV-1" vertex="1">
          <mxGeometry x="1930" y="75.12" width="130" height="174.88" as="geometry" />
        </mxCell>
        <mxCell id="ij-zDNfqEZCnku6-jbej-160" value="" style="curved=1;endArrow=classic;html=1;fontSize=12;strokeColor=default;entryX=0.399;entryY=1.018;entryDx=0;entryDy=0;entryPerimeter=0;exitX=1.043;exitY=0.486;exitDx=0;exitDy=0;exitPerimeter=0;fontColor=#000000;" parent="WIyWlLk6GJQsqaUBKTNV-1" source="ij-zDNfqEZCnku6-jbej-156" target="ij-zDNfqEZCnku6-jbej-158" edge="1">
          <mxGeometry width="50" height="50" relative="1" as="geometry">
            <mxPoint x="2020" y="650" as="sourcePoint" />
            <mxPoint x="1950" y="440" as="targetPoint" />
            <Array as="points">
              <mxPoint x="1880" y="380" />
              <mxPoint x="1970" y="320" />
            </Array>
          </mxGeometry>
        </mxCell>
        <mxCell id="ij-zDNfqEZCnku6-jbej-163" value="" style="strokeWidth=3;html=1;shape=mxgraph.flowchart.annotation_2;align=left;labelPosition=right;pointerEvents=1;fontSize=12;fillColor=#FFD966;direction=south;sketch=0;fontColor=#000000;" parent="WIyWlLk6GJQsqaUBKTNV-1" vertex="1">
          <mxGeometry x="1498.5" y="500" width="151.5" height="80" as="geometry" />
        </mxCell>
        <mxCell id="ij-zDNfqEZCnku6-jbej-164" value="&lt;font size=&quot;4&quot;&gt;自己报名&lt;/font&gt;" style="rounded=1;whiteSpace=wrap;html=1;fontSize=12;fillColor=#fff2cc;strokeColor=#d6b656;fontColor=#000000;" parent="WIyWlLk6GJQsqaUBKTNV-1" vertex="1">
          <mxGeometry x="1410" y="590" width="150" height="30" as="geometry" />
        </mxCell>
        <mxCell id="ij-zDNfqEZCnku6-jbej-165" value="&lt;font size=&quot;4&quot;&gt;替他人报名&lt;/font&gt;" style="rounded=1;whiteSpace=wrap;html=1;fontSize=12;fillColor=#fff2cc;strokeColor=#d6b656;fontColor=#000000;" parent="WIyWlLk6GJQsqaUBKTNV-1" vertex="1">
          <mxGeometry x="1590" y="590" width="150" height="30" as="geometry" />
        </mxCell>
        <mxCell id="ij-zDNfqEZCnku6-jbej-166" value="&lt;div&gt;目前的设计是只有会员才可以替自己报名，只有会员才可以帮别人报名。&lt;/div&gt;&lt;div&gt;如果用户正在审核中，可以填写替他人报名的资料，当点击提交，会提示“您的账号还在审核中，审核成功即可领取”；&lt;/div&gt;&lt;div&gt;如果用户还不是会员，点击替他人报名会跳转到会员注册页面&lt;/div&gt;&lt;div&gt;&lt;br&gt;&lt;/div&gt;&lt;div&gt;目前的这种逻辑设计实际上是限定了只有会员才可报名参加活动，只有会员才可以替别人报名活动（无论是否为会员）。&lt;/div&gt;&lt;div&gt;非会员报名活动只能足够找会员帮忙报名。&lt;/div&gt;&lt;div&gt;&lt;br&gt;&lt;/div&gt;&lt;div&gt;&lt;br&gt;&lt;/div&gt;&lt;div&gt;&lt;br&gt;&lt;/div&gt;&lt;div&gt;&lt;div&gt;&lt;br&gt;&lt;/div&gt;&lt;/div&gt;" style="shape=note;whiteSpace=wrap;html=1;backgroundOutline=1;darkOpacity=0.05;sketch=0;fontSize=12;strokeWidth=3;fillColor=none;verticalAlign=top;align=left;fontColor=#000000;" parent="WIyWlLk6GJQsqaUBKTNV-1" vertex="1">
          <mxGeometry x="1490" y="720" width="320" height="180" as="geometry" />
        </mxCell>
        <mxCell id="ij-zDNfqEZCnku6-jbej-168" value="" style="strokeWidth=2;html=1;shape=mxgraph.flowchart.annotation_2;align=left;labelPosition=right;pointerEvents=1;fontSize=18;fillColor=#FFD966;direction=west;fontColor=#000000;" parent="WIyWlLk6GJQsqaUBKTNV-1" vertex="1">
          <mxGeometry x="168" y="305" width="50" height="100" as="geometry" />
        </mxCell>
        <mxCell id="ij-zDNfqEZCnku6-jbej-169" value="活动基本信息" style="rounded=1;whiteSpace=wrap;html=1;fontSize=18;fillColor=#fff2cc;strokeColor=#d6b656;fontColor=#000000;" parent="WIyWlLk6GJQsqaUBKTNV-1" vertex="1">
          <mxGeometry x="30" y="290" width="130" height="30" as="geometry" />
        </mxCell>
        <mxCell id="ij-zDNfqEZCnku6-jbej-170" value="活动其他设置" style="rounded=1;whiteSpace=wrap;html=1;fontSize=18;fillColor=#fff2cc;strokeColor=#d6b656;fontColor=#000000;" parent="WIyWlLk6GJQsqaUBKTNV-1" vertex="1">
          <mxGeometry x="38" y="390" width="130" height="30" as="geometry" />
        </mxCell>
        <mxCell id="ij-zDNfqEZCnku6-jbej-171" value="&lt;ol&gt;&lt;li&gt;活动编号&lt;br&gt;&lt;/li&gt;&lt;li&gt;活动名称&lt;br&gt;&lt;/li&gt;&lt;li&gt;活动详情&lt;br&gt;&lt;/li&gt;&lt;li&gt;活动图片&lt;br&gt;&lt;/li&gt;&lt;li&gt;活动类型&lt;br&gt;&lt;/li&gt;&lt;li&gt;活动地点&lt;br&gt;&lt;/li&gt;&lt;li&gt;报名时间&lt;br&gt;&lt;/li&gt;&lt;li&gt;活动时间&lt;br&gt;&lt;/li&gt;&lt;li&gt;活动时间备注&lt;br&gt;&lt;/li&gt;&lt;li&gt;活动人数上限&lt;br&gt;&lt;/li&gt;&lt;li&gt;活动费用&lt;br&gt;&lt;/li&gt;&lt;li&gt;活动结束时间&lt;/li&gt;&lt;/ol&gt;" style="strokeWidth=2;html=1;shape=mxgraph.flowchart.document2;whiteSpace=wrap;size=0.25;sketch=0;fontSize=12;fillColor=#fff2cc;strokeColor=#d6b656;align=left;verticalAlign=bottom;fontColor=#000000;" parent="WIyWlLk6GJQsqaUBKTNV-1" vertex="1">
          <mxGeometry x="90" y="20" width="180" height="189.75" as="geometry" />
        </mxCell>
        <mxCell id="ij-zDNfqEZCnku6-jbej-173" value="&lt;ol&gt;&lt;li&gt;活动是否需要点名&lt;/li&gt;&lt;li&gt;活动票据是否需打印&lt;br&gt;&lt;/li&gt;&lt;li&gt;活动谁可见&lt;/li&gt;&lt;/ol&gt;" style="strokeWidth=2;html=1;shape=mxgraph.flowchart.document2;whiteSpace=wrap;size=0.25;sketch=0;fontSize=12;fillColor=#fff2cc;strokeColor=#d6b656;align=left;verticalAlign=top;fontColor=#000000;" parent="WIyWlLk6GJQsqaUBKTNV-1" vertex="1">
          <mxGeometry x="305" y="20" width="180" height="74.75" as="geometry" />
        </mxCell>
        <mxCell id="ij-zDNfqEZCnku6-jbej-175" value="" style="strokeWidth=2;html=1;shape=mxgraph.flowchart.terminator;whiteSpace=wrap;sketch=0;fontSize=12;fillColor=none;fontColor=#000000;" parent="WIyWlLk6GJQsqaUBKTNV-1" vertex="1">
          <mxGeometry x="340" y="66" width="80" height="15" as="geometry" />
        </mxCell>
        <mxCell id="ij-zDNfqEZCnku6-jbej-177" value="" style="curved=1;endArrow=classic;html=1;fontSize=12;strokeColor=default;fontColor=#000000;" parent="WIyWlLk6GJQsqaUBKTNV-1" edge="1">
          <mxGeometry width="50" height="50" relative="1" as="geometry">
            <mxPoint x="410" y="80" as="sourcePoint" />
            <mxPoint x="570" y="100" as="targetPoint" />
            <Array as="points">
              <mxPoint x="440" y="110" />
              <mxPoint x="500" y="130" />
              <mxPoint x="550" y="90" />
            </Array>
          </mxGeometry>
        </mxCell>
        <mxCell id="ij-zDNfqEZCnku6-jbej-178" value="" style="strokeWidth=3;html=1;shape=mxgraph.flowchart.annotation_2;align=left;labelPosition=right;pointerEvents=1;fontSize=12;fillColor=#FFD966;direction=east;sketch=0;fontColor=#000000;" parent="WIyWlLk6GJQsqaUBKTNV-1" vertex="1">
          <mxGeometry x="570" y="30" width="80" height="151.5" as="geometry" />
        </mxCell>
        <mxCell id="ij-zDNfqEZCnku6-jbej-180" value="" style="line;strokeWidth=2;html=1;sketch=0;fontSize=12;fillColor=none;fontColor=#000000;" parent="WIyWlLk6GJQsqaUBKTNV-1" vertex="1">
          <mxGeometry x="611" y="75.12" width="39" height="10" as="geometry" />
        </mxCell>
        <mxCell id="ij-zDNfqEZCnku6-jbej-181" value="" style="line;strokeWidth=2;html=1;sketch=0;fontSize=12;fillColor=none;fontColor=#000000;" parent="WIyWlLk6GJQsqaUBKTNV-1" vertex="1">
          <mxGeometry x="611" y="130" width="39" height="10" as="geometry" />
        </mxCell>
        <mxCell id="ij-zDNfqEZCnku6-jbej-182" value="全部可见" style="text;html=1;align=center;verticalAlign=middle;resizable=0;points=[];autosize=1;strokeColor=none;fillColor=none;fontSize=12;fontColor=#000000;" parent="WIyWlLk6GJQsqaUBKTNV-1" vertex="1">
          <mxGeometry x="650" y="20" width="60" height="20" as="geometry" />
        </mxCell>
        <mxCell id="ij-zDNfqEZCnku6-jbej-183" value="仅会员可见（含分会会员）" style="text;html=1;align=center;verticalAlign=middle;resizable=0;points=[];autosize=1;strokeColor=none;fillColor=none;fontSize=12;fontColor=#000000;" parent="WIyWlLk6GJQsqaUBKTNV-1" vertex="1">
          <mxGeometry x="650" y="70.12" width="160" height="20" as="geometry" />
        </mxCell>
        <mxCell id="ij-zDNfqEZCnku6-jbej-184" value="仅会员可见（不含分会会员）" style="text;html=1;align=center;verticalAlign=middle;resizable=0;points=[];autosize=1;strokeColor=none;fillColor=none;fontSize=12;fontColor=#000000;" parent="WIyWlLk6GJQsqaUBKTNV-1" vertex="1">
          <mxGeometry x="650" y="125" width="170" height="20" as="geometry" />
        </mxCell>
        <mxCell id="ij-zDNfqEZCnku6-jbej-185" value="仅分组会员可见" style="text;html=1;align=center;verticalAlign=middle;resizable=0;points=[];autosize=1;strokeColor=none;fillColor=none;fontSize=12;fontColor=#000000;" parent="WIyWlLk6GJQsqaUBKTNV-1" vertex="1">
          <mxGeometry x="646" y="171" width="100" height="20" as="geometry" />
        </mxCell>
        <mxCell id="ij-zDNfqEZCnku6-jbej-188" value="" style="curved=1;endArrow=classic;html=1;fontSize=12;strokeColor=default;fontColor=#000000;" parent="WIyWlLk6GJQsqaUBKTNV-1" edge="1">
          <mxGeometry width="50" height="50" relative="1" as="geometry">
            <mxPoint x="830" y="110" as="sourcePoint" />
            <mxPoint x="1250" y="370" as="targetPoint" />
            <Array as="points">
              <mxPoint x="890" y="100" />
              <mxPoint x="940" y="100" />
              <mxPoint x="1000" y="110" />
            </Array>
          </mxGeometry>
        </mxCell>
        <mxCell id="ij-zDNfqEZCnku6-jbej-189" value="" style="rounded=0;whiteSpace=wrap;html=1;fillColor=#FFD966;strokeColor=#d6b656;fontColor=#000000;" parent="WIyWlLk6GJQsqaUBKTNV-1" vertex="1">
          <mxGeometry x="3580" y="27.38" width="120" height="60" as="geometry" />
        </mxCell>
        <mxCell id="ij-zDNfqEZCnku6-jbej-190" value="&lt;font style=&quot;font-size: 18px&quot;&gt;管理员操作环节&lt;/font&gt;" style="text;html=1;align=center;verticalAlign=middle;resizable=0;points=[];autosize=1;strokeColor=none;fillColor=none;fontSize=12;fontColor=#000000;" parent="WIyWlLk6GJQsqaUBKTNV-1" vertex="1">
          <mxGeometry x="3750" y="50.12" width="140" height="20" as="geometry" />
        </mxCell>
        <mxCell id="ij-zDNfqEZCnku6-jbej-191" value="" style="ellipse;whiteSpace=wrap;html=1;sketch=0;fontSize=24;strokeWidth=3;fillColor=#fff2cc;strokeColor=#d6b656;fontColor=#000000;" parent="WIyWlLk6GJQsqaUBKTNV-1" vertex="1">
          <mxGeometry x="3530" y="130" width="190" height="50" as="geometry" />
        </mxCell>
        <mxCell id="ij-zDNfqEZCnku6-jbej-192" value="&lt;font style=&quot;font-size: 18px&quot;&gt;管理员操作结果状态&lt;/font&gt;" style="text;html=1;align=center;verticalAlign=middle;resizable=0;points=[];autosize=1;strokeColor=none;fillColor=none;fontSize=12;fontColor=#000000;" parent="WIyWlLk6GJQsqaUBKTNV-1" vertex="1">
          <mxGeometry x="3730" y="145" width="180" height="20" as="geometry" />
        </mxCell>
        <mxCell id="ij-zDNfqEZCnku6-jbej-193" value="" style="rounded=0;whiteSpace=wrap;html=1;fillColor=#007FFF;strokeColor=#006EAF;fontColor=#000000;" parent="WIyWlLk6GJQsqaUBKTNV-1" vertex="1">
          <mxGeometry x="3960" y="30" width="120" height="60" as="geometry" />
        </mxCell>
        <mxCell id="ij-zDNfqEZCnku6-jbej-194" value="&lt;font style=&quot;font-size: 18px&quot;&gt;用户操作环节&lt;/font&gt;" style="text;html=1;align=center;verticalAlign=middle;resizable=0;points=[];autosize=1;strokeColor=none;fillColor=none;fontSize=12;fontColor=#000000;" parent="WIyWlLk6GJQsqaUBKTNV-1" vertex="1">
          <mxGeometry x="4120" y="50.12" width="120" height="20" as="geometry" />
        </mxCell>
        <mxCell id="ij-zDNfqEZCnku6-jbej-195" value="" style="ellipse;whiteSpace=wrap;html=1;sketch=0;fontSize=24;strokeWidth=3;fillColor=#dae8fc;strokeColor=#6c8ebf;fontColor=#000000;" parent="WIyWlLk6GJQsqaUBKTNV-1" vertex="1">
          <mxGeometry x="3920" y="125" width="220" height="55" as="geometry" />
        </mxCell>
        <mxCell id="ij-zDNfqEZCnku6-jbej-196" value="&lt;font style=&quot;font-size: 18px&quot;&gt;用户操作结果状态&lt;/font&gt;" style="text;html=1;align=center;verticalAlign=middle;resizable=0;points=[];autosize=1;strokeColor=none;fillColor=none;fontSize=12;fontColor=#000000;" parent="WIyWlLk6GJQsqaUBKTNV-1" vertex="1">
          <mxGeometry x="4160" y="140" width="160" height="20" as="geometry" />
        </mxCell>
        <mxCell id="ij-zDNfqEZCnku6-jbej-206" value="&lt;div&gt;1、建议前期小程序报名不稳定的情况下，保留网页报名方式&lt;/div&gt;&lt;div&gt;2、后期小程序/app报名功能稳定后，移除网页报名方式，更多的引导用户使用app，通过分享app中的活动报名链接/二维码来增加用户对app的使用率&lt;/div&gt;" style="shape=callout;whiteSpace=wrap;html=1;perimeter=calloutPerimeter;sketch=0;fontSize=18;strokeWidth=3;fillColor=none;direction=east;align=left;position2=0.48;fontColor=#000000;" parent="WIyWlLk6GJQsqaUBKTNV-1" vertex="1">
          <mxGeometry x="1290" y="60" width="330" height="230" as="geometry" />
        </mxCell>
        <mxCell id="ij-zDNfqEZCnku6-jbej-207" value="&lt;span style=&quot;font-family: helvetica; font-size: 18px; font-style: normal; font-weight: normal; letter-spacing: normal; text-align: left; text-indent: 0px; text-transform: none; word-spacing: 0px; background-color: rgb(248, 249, 250); text-decoration: none; display: inline; float: none;&quot;&gt;1、这个设计有重复，如果是想只要会员参加，可以在新建活动阶段对活动进行条件限制，限制只有会员可参加活动，或者限制活动发布时，只有会员可见；&lt;br&gt;&lt;br&gt;&lt;/span&gt;" style="shape=callout;whiteSpace=wrap;html=1;perimeter=calloutPerimeter;sketch=0;fontSize=18;strokeWidth=3;fillColor=none;direction=west;align=left;position2=0.48;fontColor=#000000;" parent="WIyWlLk6GJQsqaUBKTNV-1" vertex="1">
          <mxGeometry x="1450" y="890" width="330" height="230" as="geometry" />
        </mxCell>
        <mxCell id="ij-zDNfqEZCnku6-jbej-208" value="&lt;span style=&quot;font-family: helvetica; font-size: 24px; font-style: normal; font-weight: normal; letter-spacing: normal; text-align: left; text-indent: 0px; text-transform: none; word-spacing: 0px; background-color: rgb(248, 249, 250); text-decoration: none; display: inline; float: none;&quot;&gt;建议这些条件后移至管理员报名审核环节&lt;/span&gt;" style="shape=callout;whiteSpace=wrap;html=1;perimeter=calloutPerimeter;sketch=0;fontSize=18;strokeWidth=3;fillColor=none;direction=north;fontColor=#000000;" parent="WIyWlLk6GJQsqaUBKTNV-1" vertex="1">
          <mxGeometry x="250" y="1060" width="190" height="350" as="geometry" />
        </mxCell>
        <mxCell id="ij-zDNfqEZCnku6-jbej-209" value="报名成员信息表：&lt;br&gt;1、姓名/英文名&lt;br&gt;2、电话号码&lt;br&gt;3、管理员设置的信息&lt;br&gt;4、是否是会员&lt;br&gt;5、报名方式&lt;br&gt;6、报名时间" style="shape=document;whiteSpace=wrap;html=1;boundedLbl=1;sketch=0;fontSize=18;strokeWidth=3;fillColor=none;align=left;fontColor=#000000;" parent="WIyWlLk6GJQsqaUBKTNV-1" vertex="1">
          <mxGeometry x="2240" y="60" width="260" height="270.25" as="geometry" />
        </mxCell>
        <mxCell id="ij-zDNfqEZCnku6-jbej-210" value="" style="strokeWidth=3;html=1;shape=mxgraph.flowchart.annotation_2;align=left;labelPosition=right;pointerEvents=1;fontSize=12;fillColor=#FFD966;direction=east;sketch=0;fontColor=#000000;" parent="WIyWlLk6GJQsqaUBKTNV-1" vertex="1">
          <mxGeometry x="3570" y="435.5" width="80" height="151.5" as="geometry" />
        </mxCell>
        <mxCell id="ij-zDNfqEZCnku6-jbej-211" value="" style="line;strokeWidth=2;html=1;sketch=0;fontSize=18;fillColor=none;fontColor=#000000;" parent="WIyWlLk6GJQsqaUBKTNV-1" vertex="1">
          <mxGeometry x="3220" y="496.25" width="160" height="10" as="geometry" />
        </mxCell>
        <mxCell id="ij-zDNfqEZCnku6-jbej-212" value="&lt;font size=&quot;4&quot;&gt;审核依据&lt;/font&gt;" style="rounded=1;whiteSpace=wrap;html=1;fontSize=12;fillColor=#fff2cc;strokeColor=#d6b656;fontColor=#000000;" parent="WIyWlLk6GJQsqaUBKTNV-1" vertex="1">
          <mxGeometry x="3391" y="486.25" width="150" height="30" as="geometry" />
        </mxCell>
        <mxCell id="ij-zDNfqEZCnku6-jbej-213" value="&lt;font size=&quot;4&quot;&gt;是否符合活动设置条件&lt;/font&gt;" style="rounded=1;whiteSpace=wrap;html=1;fontSize=12;fillColor=#fff2cc;strokeColor=#d6b656;fontColor=#000000;" parent="WIyWlLk6GJQsqaUBKTNV-1" vertex="1">
          <mxGeometry x="3670" y="417.75" width="230" height="28.5" as="geometry" />
        </mxCell>
        <mxCell id="ij-zDNfqEZCnku6-jbej-214" value="&lt;font size=&quot;4&quot;&gt;都满足条件的情况下，选择筛选方式：&lt;/font&gt;" style="rounded=1;whiteSpace=wrap;html=1;fontSize=12;fillColor=#fff2cc;strokeColor=#d6b656;fontColor=#000000;" parent="WIyWlLk6GJQsqaUBKTNV-1" vertex="1">
          <mxGeometry x="3670" y="569.75" width="230" height="28.5" as="geometry" />
        </mxCell>
        <mxCell id="ij-zDNfqEZCnku6-jbej-217" value="" style="strokeWidth=3;html=1;shape=mxgraph.flowchart.annotation_2;align=left;labelPosition=right;pointerEvents=1;fontSize=12;fillColor=#FFD966;direction=east;sketch=0;fontColor=#000000;" parent="WIyWlLk6GJQsqaUBKTNV-1" vertex="1">
          <mxGeometry x="3910" y="508.25" width="80" height="151.5" as="geometry" />
        </mxCell>
        <mxCell id="ij-zDNfqEZCnku6-jbej-218" value="&lt;font size=&quot;4&quot;&gt;时间顺序，先到先得&lt;/font&gt;" style="rounded=1;whiteSpace=wrap;html=1;fontSize=12;fillColor=#fff2cc;strokeColor=#d6b656;fontColor=#000000;" parent="WIyWlLk6GJQsqaUBKTNV-1" vertex="1">
          <mxGeometry x="3990" y="494.13" width="140" height="34.25" as="geometry" />
        </mxCell>
        <mxCell id="ij-zDNfqEZCnku6-jbej-219" value="&lt;font size=&quot;4&quot;&gt;抽签方式，随机抽签&lt;/font&gt;" style="rounded=1;whiteSpace=wrap;html=1;fontSize=12;fillColor=#fff2cc;strokeColor=#d6b656;fontColor=#000000;" parent="WIyWlLk6GJQsqaUBKTNV-1" vertex="1">
          <mxGeometry x="3989" y="648.25" width="230" height="28.5" as="geometry" />
        </mxCell>
        <mxCell id="-HxedoFoJFOzmZ5ooVSD-0" value="审核拒绝" style="ellipse;whiteSpace=wrap;html=1;sketch=0;fontSize=24;strokeWidth=3;fillColor=#fff2cc;strokeColor=#d6b656;fontColor=#000000;" parent="WIyWlLk6GJQsqaUBKTNV-1" vertex="1">
          <mxGeometry x="4424" y="592.25" width="230" height="80" as="geometry" />
        </mxCell>
        <mxCell id="-HxedoFoJFOzmZ5ooVSD-1" value="审核中" style="ellipse;whiteSpace=wrap;html=1;sketch=0;fontSize=24;strokeWidth=3;fillColor=#fff2cc;strokeColor=#d6b656;fontColor=#000000;" parent="WIyWlLk6GJQsqaUBKTNV-1" vertex="1">
          <mxGeometry x="3905" y="734.25" width="230" height="80" as="geometry" />
        </mxCell>
        <mxCell id="-HxedoFoJFOzmZ5ooVSD-4" value="&lt;font size=&quot;5&quot;&gt;报名状态反馈&lt;/font&gt;" style="rounded=0;whiteSpace=wrap;html=1;fillColor=#FFD966;strokeColor=#d6b656;fontColor=#000000;" parent="WIyWlLk6GJQsqaUBKTNV-1" vertex="1">
          <mxGeometry x="4360" y="1250" width="120" height="60" as="geometry" />
        </mxCell>
        <mxCell id="-HxedoFoJFOzmZ5ooVSD-5" value="&lt;font size=&quot;5&quot;&gt;取消报名&lt;/font&gt;" style="rounded=0;whiteSpace=wrap;html=1;fillColor=#007FFF;strokeColor=#006EAF;fontColor=#000000;" parent="WIyWlLk6GJQsqaUBKTNV-1" vertex="1">
          <mxGeometry x="2450" y="926" width="120" height="60" as="geometry" />
        </mxCell>
        <mxCell id="-HxedoFoJFOzmZ5ooVSD-6" value="&lt;font style=&quot;font-size: 24px&quot;&gt;活动举行&lt;/font&gt;" style="rounded=0;whiteSpace=wrap;html=1;fillColor=#FFD966;strokeColor=#d6b656;fontColor=#000000;" parent="WIyWlLk6GJQsqaUBKTNV-1" vertex="1">
          <mxGeometry x="1210" y="1590" width="120" height="60" as="geometry" />
        </mxCell>
        <mxCell id="-HxedoFoJFOzmZ5ooVSD-7" value="&lt;font size=&quot;4&quot;&gt;展示信息（二维码）&lt;/font&gt;" style="rounded=0;whiteSpace=wrap;html=1;fillColor=#dae8fc;strokeColor=#6c8ebf;fontColor=#000000;" parent="WIyWlLk6GJQsqaUBKTNV-1" vertex="1">
          <mxGeometry x="1470" y="1620" width="120" height="60" as="geometry" />
        </mxCell>
        <mxCell id="-HxedoFoJFOzmZ5ooVSD-9" value="" style="shape=flexArrow;endArrow=classic;html=1;fontSize=24;strokeColor=default;exitX=0.5;exitY=0;exitDx=0;exitDy=0;fontColor=#000000;" parent="WIyWlLk6GJQsqaUBKTNV-1" edge="1">
          <mxGeometry width="50" height="50" relative="1" as="geometry">
            <mxPoint x="2230" y="958.57" as="sourcePoint" />
            <mxPoint x="2420" y="958.57" as="targetPoint" />
          </mxGeometry>
        </mxCell>
        <mxCell id="-HxedoFoJFOzmZ5ooVSD-11" value="&lt;span style=&quot;font-family: helvetica; font-size: 18px; font-style: normal; font-weight: normal; letter-spacing: normal; text-align: left; text-indent: 0px; text-transform: none; word-spacing: 0px; background-color: rgb(248, 249, 250); text-decoration: none; display: inline; float: none;&quot;&gt;&lt;div&gt;我觉得还是尽量让多的人去使用小程序/app，包括会员和非会员，对于我们连心来说，只要是连心的用户都可以使用活动报名的功能，网页报名，个人建议应该是弱化甚至移除掉的，把用户更多的推到app的使用上。至于是否只有会员可参加报名活动，或者只有会员才可以替别人报名活动，选择权应该交到活动举办方（社团管理员）手上，因为目前我们已经可以做到（或者准备做）让管理员设置活动是否仅会员可见、以及活动是否只会员可参加，具体来说，在这种情况下：&lt;/div&gt;&lt;div&gt;1、如果管理员希望仅会员可参加活动-打开仅会员可参加活动的开关：&lt;/div&gt;&lt;div&gt;（1）会员点击自己报名：“报名信息提交成功”&lt;/div&gt;&lt;div&gt;（2）会员点击替他人报名：如果填写的他人信息是会员，“报名信息提交成功”；如果填写的他人信息不是会员，“本活动仅会员可参加”&lt;/div&gt;&lt;div&gt;（3）非会员点击自己报名：“本活动仅会员可参加，是否注册成为会员”&lt;/div&gt;&lt;div&gt;（4）非会员点击替他人报名：同1（2）&lt;/div&gt;&lt;div&gt;2、如果管理员希望这个活动是熟悉的人参加-打开仅会员可见的权限开关：&lt;/div&gt;&lt;div&gt;这种情况，只有会员可以点击自己报名和替他人报名，需要额外区分的是替他人报名，如果管理员只想让会员参加，提示同1（2）；&lt;/div&gt;&lt;div&gt;如果管理员允许非会员参加，“报名信息提交成功”&lt;/div&gt;&lt;div&gt;3、在没有任何限制的情况下，自己报名和替他人报名没区别&lt;/div&gt;&lt;/span&gt;" style="shape=callout;whiteSpace=wrap;html=1;perimeter=calloutPerimeter;sketch=0;fontSize=18;strokeWidth=3;fillColor=none;direction=west;align=left;position2=0.48;fontColor=#000000;" parent="WIyWlLk6GJQsqaUBKTNV-1" vertex="1">
          <mxGeometry x="1140" y="1060" width="590" height="470" as="geometry" />
        </mxCell>
        <mxCell id="IFfcSypbk0W2r34AIJ50-0" value="管理员" style="swimlane;whiteSpace=wrap;fontColor=#000000;" vertex="1" parent="WIyWlLk6GJQsqaUBKTNV-1">
          <mxGeometry x="1440" y="4070" width="280" height="570" as="geometry" />
        </mxCell>
        <mxCell id="IFfcSypbk0W2r34AIJ50-1" value="" style="ellipse;shape=startState;fillColor=#000000;strokeColor=#ff0000;fontColor=#000000;" vertex="1" parent="IFfcSypbk0W2r34AIJ50-0">
          <mxGeometry x="100" y="40" width="30" height="30" as="geometry" />
        </mxCell>
        <mxCell id="IFfcSypbk0W2r34AIJ50-2" value="" style="edgeStyle=elbowEdgeStyle;elbow=horizontal;verticalAlign=bottom;endArrow=open;endSize=8;strokeColor=#FF0000;endFill=1;rounded=0;fontColor=#000000;" edge="1" parent="IFfcSypbk0W2r34AIJ50-0" source="IFfcSypbk0W2r34AIJ50-1" target="IFfcSypbk0W2r34AIJ50-3">
          <mxGeometry x="100" y="40" as="geometry">
            <mxPoint x="115" y="110" as="targetPoint" />
          </mxGeometry>
        </mxCell>
        <mxCell id="IFfcSypbk0W2r34AIJ50-3" value="设置活动" style="fontColor=#000000;" vertex="1" parent="IFfcSypbk0W2r34AIJ50-0">
          <mxGeometry x="60" y="110" width="110" height="50" as="geometry" />
        </mxCell>
        <mxCell id="IFfcSypbk0W2r34AIJ50-4" value="" style="fontColor=#000000;" vertex="1" parent="IFfcSypbk0W2r34AIJ50-0">
          <mxGeometry x="60" y="220" width="110" height="50" as="geometry" />
        </mxCell>
        <mxCell id="IFfcSypbk0W2r34AIJ50-5" value="" style="endArrow=open;strokeColor=#FF0000;endFill=1;rounded=0;fontColor=#000000;" edge="1" parent="IFfcSypbk0W2r34AIJ50-0" source="IFfcSypbk0W2r34AIJ50-3" target="IFfcSypbk0W2r34AIJ50-4">
          <mxGeometry relative="1" as="geometry" />
        </mxCell>
        <mxCell id="IFfcSypbk0W2r34AIJ50-6" value="post command" style="fontColor=#000000;" vertex="1" parent="IFfcSypbk0W2r34AIJ50-0">
          <mxGeometry x="60" y="325" width="110" height="50" as="geometry" />
        </mxCell>
        <mxCell id="IFfcSypbk0W2r34AIJ50-7" value="" style="endArrow=open;strokeColor=#FF0000;endFill=1;rounded=0;fontColor=#000000;" edge="1" parent="IFfcSypbk0W2r34AIJ50-0" source="IFfcSypbk0W2r34AIJ50-4" target="IFfcSypbk0W2r34AIJ50-6">
          <mxGeometry relative="1" as="geometry" />
        </mxCell>
        <mxCell id="IFfcSypbk0W2r34AIJ50-35" value="发布活动" style="text;html=1;strokeColor=none;fillColor=none;align=center;verticalAlign=middle;whiteSpace=wrap;rounded=0;" vertex="1" parent="IFfcSypbk0W2r34AIJ50-0">
          <mxGeometry x="200" y="108" width="60" height="30" as="geometry" />
        </mxCell>
        <mxCell id="IFfcSypbk0W2r34AIJ50-9" value="活动用户" style="swimlane;whiteSpace=wrap;fontColor=#000000;" vertex="1" parent="WIyWlLk6GJQsqaUBKTNV-1">
          <mxGeometry x="1720" y="4070" width="280" height="570" as="geometry" />
        </mxCell>
        <mxCell id="IFfcSypbk0W2r34AIJ50-10" value="" style="ellipse;shape=startState;fillColor=#000000;strokeColor=#ff0000;fontColor=#000000;" vertex="1" parent="IFfcSypbk0W2r34AIJ50-9">
          <mxGeometry x="60" y="40" width="30" height="30" as="geometry" />
        </mxCell>
        <mxCell id="IFfcSypbk0W2r34AIJ50-11" value="" style="edgeStyle=elbowEdgeStyle;elbow=horizontal;verticalAlign=bottom;endArrow=open;endSize=8;strokeColor=#FF0000;endFill=1;rounded=0;fontColor=#000000;" edge="1" parent="IFfcSypbk0W2r34AIJ50-9" source="IFfcSypbk0W2r34AIJ50-10" target="IFfcSypbk0W2r34AIJ50-12">
          <mxGeometry x="40" y="20" as="geometry">
            <mxPoint x="55" y="90" as="targetPoint" />
          </mxGeometry>
        </mxCell>
        <mxCell id="IFfcSypbk0W2r34AIJ50-12" value="idle" style="fontColor=#000000;" vertex="1" parent="IFfcSypbk0W2r34AIJ50-9">
          <mxGeometry x="20" y="110" width="110" height="50" as="geometry" />
        </mxCell>
        <mxCell id="IFfcSypbk0W2r34AIJ50-13" value="check for &#xa;new commands" style="fontColor=#000000;" vertex="1" parent="IFfcSypbk0W2r34AIJ50-9">
          <mxGeometry x="20" y="220" width="110" height="50" as="geometry" />
        </mxCell>
        <mxCell id="IFfcSypbk0W2r34AIJ50-14" value="" style="endArrow=open;strokeColor=#FF0000;endFill=1;rounded=0;fontColor=#000000;" edge="1" parent="IFfcSypbk0W2r34AIJ50-9" source="IFfcSypbk0W2r34AIJ50-12" target="IFfcSypbk0W2r34AIJ50-13">
          <mxGeometry relative="1" as="geometry" />
        </mxCell>
        <mxCell id="IFfcSypbk0W2r34AIJ50-15" value="command queue" style="fontColor=#000000;" vertex="1" parent="IFfcSypbk0W2r34AIJ50-9">
          <mxGeometry x="20" y="325" width="110" height="50" as="geometry" />
        </mxCell>
        <mxCell id="IFfcSypbk0W2r34AIJ50-16" value="" style="endArrow=open;strokeColor=#FF0000;endFill=1;rounded=0;fontColor=#000000;" edge="1" parent="IFfcSypbk0W2r34AIJ50-9" source="IFfcSypbk0W2r34AIJ50-13" target="IFfcSypbk0W2r34AIJ50-15">
          <mxGeometry relative="1" as="geometry" />
        </mxCell>
        <mxCell id="IFfcSypbk0W2r34AIJ50-17" value="queue empty" style="rhombus;fillColor=#ffffc0;strokeColor=#ff0000;fontColor=#000000;" vertex="1" parent="IFfcSypbk0W2r34AIJ50-9">
          <mxGeometry x="150" y="225" width="80" height="40" as="geometry" />
        </mxCell>
        <mxCell id="IFfcSypbk0W2r34AIJ50-18" value="yes" style="edgeStyle=elbowEdgeStyle;elbow=horizontal;align=left;verticalAlign=bottom;endArrow=open;endSize=8;strokeColor=#FF0000;exitX=0.5;exitY=0;endFill=1;rounded=0;entryX=0.75;entryY=0.5;entryPerimeter=0;fontColor=#000000;" edge="1" parent="IFfcSypbk0W2r34AIJ50-9" source="IFfcSypbk0W2r34AIJ50-17" target="IFfcSypbk0W2r34AIJ50-21">
          <mxGeometry x="-1" relative="1" as="geometry">
            <mxPoint x="160" y="150" as="targetPoint" />
            <Array as="points">
              <mxPoint x="190" y="180" />
            </Array>
          </mxGeometry>
        </mxCell>
        <mxCell id="IFfcSypbk0W2r34AIJ50-19" value="no" style="edgeStyle=elbowEdgeStyle;elbow=horizontal;align=left;verticalAlign=top;endArrow=open;endSize=8;strokeColor=#FF0000;endFill=1;rounded=0;fontColor=#000000;" edge="1" parent="IFfcSypbk0W2r34AIJ50-9" source="IFfcSypbk0W2r34AIJ50-17" target="IFfcSypbk0W2r34AIJ50-23">
          <mxGeometry x="-1" relative="1" as="geometry">
            <mxPoint x="190" y="305" as="targetPoint" />
          </mxGeometry>
        </mxCell>
        <mxCell id="IFfcSypbk0W2r34AIJ50-20" value="" style="endArrow=open;strokeColor=#FF0000;endFill=1;rounded=0;fontColor=#000000;" edge="1" parent="IFfcSypbk0W2r34AIJ50-9" source="IFfcSypbk0W2r34AIJ50-13" target="IFfcSypbk0W2r34AIJ50-17">
          <mxGeometry relative="1" as="geometry" />
        </mxCell>
        <mxCell id="IFfcSypbk0W2r34AIJ50-21" value="" style="shape=line;strokeWidth=6;strokeColor=#ff0000;rotation=90;fontColor=#000000;" vertex="1" parent="IFfcSypbk0W2r34AIJ50-9">
          <mxGeometry x="130" y="127.5" width="50" height="15" as="geometry" />
        </mxCell>
        <mxCell id="IFfcSypbk0W2r34AIJ50-22" value="" style="edgeStyle=elbowEdgeStyle;elbow=horizontal;verticalAlign=bottom;endArrow=open;endSize=8;strokeColor=#FF0000;endFill=1;rounded=0;fontColor=#000000;" edge="1" parent="IFfcSypbk0W2r34AIJ50-9" source="IFfcSypbk0W2r34AIJ50-21" target="IFfcSypbk0W2r34AIJ50-12">
          <mxGeometry x="130" y="90" as="geometry">
            <mxPoint x="230" y="140" as="targetPoint" />
          </mxGeometry>
        </mxCell>
        <mxCell id="IFfcSypbk0W2r34AIJ50-23" value="dispatch&#xa;command&#xa;worker thread" style="fontColor=#000000;" vertex="1" parent="IFfcSypbk0W2r34AIJ50-9">
          <mxGeometry x="140" y="325" width="110" height="50" as="geometry" />
        </mxCell>
        <mxCell id="IFfcSypbk0W2r34AIJ50-24" value="critical&#xa;section" style="shape=note;whiteSpace=wrap;size=17;fontColor=#000000;" vertex="1" parent="IFfcSypbk0W2r34AIJ50-9">
          <mxGeometry x="105" y="490" width="100" height="50" as="geometry" />
        </mxCell>
        <mxCell id="IFfcSypbk0W2r34AIJ50-25" value="" style="endArrow=none;strokeColor=#FF0000;endFill=0;rounded=0;dashed=1;fontColor=#000000;" edge="1" parent="IFfcSypbk0W2r34AIJ50-9" source="IFfcSypbk0W2r34AIJ50-15" target="IFfcSypbk0W2r34AIJ50-24">
          <mxGeometry relative="1" as="geometry" />
        </mxCell>
        <mxCell id="IFfcSypbk0W2r34AIJ50-26" value="" style="whiteSpace=wrap;strokeColor=#FF0000;fillColor=#FF0000;fontColor=#000000;" vertex="1" parent="IFfcSypbk0W2r34AIJ50-9">
          <mxGeometry x="245" y="395" width="5" height="45" as="geometry" />
        </mxCell>
        <mxCell id="IFfcSypbk0W2r34AIJ50-27" value="" style="edgeStyle=elbowEdgeStyle;elbow=horizontal;entryX=0;entryY=0.5;strokeColor=#FF0000;endArrow=open;endFill=1;rounded=0;fontColor=#000000;" edge="1" parent="IFfcSypbk0W2r34AIJ50-9" source="IFfcSypbk0W2r34AIJ50-23" target="IFfcSypbk0W2r34AIJ50-26">
          <mxGeometry width="100" height="100" relative="1" as="geometry">
            <mxPoint x="60" y="480" as="sourcePoint" />
            <mxPoint x="160" y="380" as="targetPoint" />
            <Array as="points">
              <mxPoint x="195" y="400" />
            </Array>
          </mxGeometry>
        </mxCell>
        <mxCell id="IFfcSypbk0W2r34AIJ50-28" value="Thread 3" style="swimlane;whiteSpace=wrap;fontColor=#000000;" vertex="1" parent="WIyWlLk6GJQsqaUBKTNV-1">
          <mxGeometry x="2000" y="4070" width="280" height="570" as="geometry" />
        </mxCell>
        <mxCell id="IFfcSypbk0W2r34AIJ50-29" value="process&#xa;command" style="fontColor=#000000;" vertex="1" parent="IFfcSypbk0W2r34AIJ50-28">
          <mxGeometry x="90" y="405" width="110" height="50" as="geometry" />
        </mxCell>
        <mxCell id="IFfcSypbk0W2r34AIJ50-30" value="" style="edgeStyle=elbowEdgeStyle;elbow=horizontal;strokeColor=#FF0000;endArrow=open;endFill=1;rounded=0;entryX=0.25;entryY=0.5;entryPerimeter=0;fontColor=#000000;" edge="1" parent="IFfcSypbk0W2r34AIJ50-28" target="IFfcSypbk0W2r34AIJ50-21">
          <mxGeometry width="100" height="100" relative="1" as="geometry">
            <mxPoint x="-30" y="410" as="sourcePoint" />
            <mxPoint x="-120" y="120" as="targetPoint" />
            <Array as="points">
              <mxPoint x="-10" y="135" />
            </Array>
          </mxGeometry>
        </mxCell>
        <mxCell id="IFfcSypbk0W2r34AIJ50-31" value="" style="edgeStyle=none;strokeColor=#FF0000;endArrow=open;endFill=1;rounded=0;fontColor=#000000;" edge="1" parent="IFfcSypbk0W2r34AIJ50-28" target="IFfcSypbk0W2r34AIJ50-29">
          <mxGeometry width="100" height="100" relative="1" as="geometry">
            <mxPoint x="-30" y="429.5" as="sourcePoint" />
            <mxPoint x="90" y="429.5" as="targetPoint" />
          </mxGeometry>
        </mxCell>
        <mxCell id="IFfcSypbk0W2r34AIJ50-32" value="" style="ellipse;shape=endState;fillColor=#000000;strokeColor=#ff0000;fontColor=#000000;" vertex="1" parent="IFfcSypbk0W2r34AIJ50-28">
          <mxGeometry x="130" y="500" width="30" height="30" as="geometry" />
        </mxCell>
        <mxCell id="IFfcSypbk0W2r34AIJ50-33" value="" style="endArrow=open;strokeColor=#FF0000;endFill=1;rounded=0;fontColor=#000000;" edge="1" parent="IFfcSypbk0W2r34AIJ50-28" source="IFfcSypbk0W2r34AIJ50-29" target="IFfcSypbk0W2r34AIJ50-32">
          <mxGeometry relative="1" as="geometry" />
        </mxCell>
        <mxCell id="IFfcSypbk0W2r34AIJ50-34" value="" style="endArrow=open;strokeColor=#FF0000;endFill=1;rounded=0;fontColor=#000000;" edge="1" parent="WIyWlLk6GJQsqaUBKTNV-1">
          <mxGeometry relative="1" as="geometry">
            <mxPoint x="1610" y="4210" as="sourcePoint" />
            <mxPoint x="1740" y="4210" as="targetPoint" />
          </mxGeometry>
        </mxCell>
      </root>
    </mxGraphModel>
  </diagram>
</mxfile>
